<?xml version="1.0" encoding="UTF-8"?>
<!DOCTYPE svg PUBLIC "-//W3C//DTD SVG 1.1//EN" "http://www.w3.org/Graphics/SVG/1.1/DTD/svg11.dtd">
<svg xmlns="http://www.w3.org/2000/svg" version="1.1" width="100px" height="100px" style="shape-rendering:geometricPrecision; text-rendering:geometricPrecision; image-rendering:optimizeQuality; fill-rule:evenodd; clip-rule:evenodd" xmlns:xlink="http://www.w3.org/1999/xlink">
<g><path style="opacity:0.968" fill="#000000" d="M -0.5,13.5 C 32.8333,13.5 66.1667,13.5 99.5,13.5C 99.5,15.8333 99.5,18.1667 99.5,20.5C 82.8635,33.4913 66.1968,46.4913 49.5,59.5C 32.8146,46.4761 16.1479,33.4761 -0.5,20.5C -0.5,18.1667 -0.5,15.8333 -0.5,13.5 Z"/></g>
<g><path style="opacity:0.98" fill="#000000" d="M -0.5,23.5 C 16.1735,36.5087 32.8402,49.5087 49.5,62.5C 66.1557,49.8366 82.8224,37.1699 99.5,24.5C 99.5,44.8333 99.5,65.1667 99.5,85.5C 66.1667,85.5 32.8333,85.5 -0.5,85.5C -0.5,64.8333 -0.5,44.1667 -0.5,23.5 Z"/></g>
</svg>
